<svg width="64" height="60" viewBox="0 0 64 60" fill="none" xmlns="http://www.w3.org/2000/svg">
<path d="M24 54H11V51C11 50.9 10.9 49.4 9.3 47.7L2.3 40.7C0 38.4 0 36.1 0 36V20C0 17.8 1.8 16 4 16C6.2 16 8 17.8 8 20V28H6V20C6 18.9 5.1 18 4 18C2.9 18 2 18.9 2 20V36C2 36.1 2.1 37.6 3.7 39.3L10.7 46.3C13 48.6 13 50.9 13 51V52H22V45C22 45 22 42.4 20.3 40.7L10.6 31H10C8.9 31 8 31.9 8 33V33.6L14.7 40.3L13.3 41.7L6 34.4V33C6 30.8 7.8 29 10 29H11.4L21.7 39.3C24 41.6 24 44.9 24 45V54Z" fill="#B2BDC8"/>
<path d="M53 54H40V45C40 44.9 40 41.6 42.3 39.3L52.6 29H54C56.2 29 58 30.8 58 33V34.4L50.7 41.7L49.3 40.3L56 33.6V33C56 31.9 55.1 31 54 31H53.4L43.7 40.7C42 42.4 42 45 42 45V52H51V51C51 50.9 51 48.6 53.3 46.3L60.3 39.3C62 37.6 62 36.1 62 36V20C62 18.9 61.1 18 60 18C58.9 18 58 18.9 58 20V28H56V20C56 17.8 57.8 16 60 16C62.2 16 64 17.8 64 20V36C64 36.1 64 38.4 61.7 40.7L54.7 47.7C53.1 49.4 53 50.9 53 51V54Z" fill="#B2BDC8"/>
<path d="M55 60H53V54H40V60H38V54C38 52.9 38.9 52 40 52H53C54.1 52 55 52.9 55 54V60Z" fill="#B2BDC8"/>
<path d="M26 60H24V54H11V60H9V54C9 52.9 9.9 52 11 52H24C25.1 52 26 52.9 26 54V60Z" fill="#B2BDC8"/>
<path d="M33 12H31V14H33V12Z" fill="#B2BDC8"/>
<path d="M33 16H31V18H33V16Z" fill="#B2BDC8"/>
<path d="M32 37.2L31.5 36.9C30.7 36.4 12 25.4 12 10C12 4.5 16.5 0 22 0C25.9 0 30.1 2.4 32 6C33.9 2.4 38.1 0 42 0C47.5 0 52 4.5 52 10C52 25.4 33.3 36.4 32.5 36.9L32 37.2ZM22 2C17.6 2 14 5.6 14 10C14 22.9 29 33 32 34.8C35 33 50 22.9 50 10C50 5.6 46.4 2 42 2C37.8 2 33 5 33 10H31C31 5 26.2 2 22 2Z" fill="#B2BDC8"/>
<path d="M48 10H46C46 8 44.2 6 42 6V4C45.3 4 48 7 48 10Z" fill="#B2BDC8"/>
<path d="M18 10H16C16 7 18.7 4 22 4V6C19.8 6 18 8 18 10Z" fill="#B2BDC8"/>
</svg>
