<svg width="56" height="64" viewBox="0 0 56 64" fill="none" xmlns="http://www.w3.org/2000/svg">
<path d="M28 34.2L27.4 33.8C26.7 33.3 9 21.4 9 10C9 4.5 13.5 0 19 0C23 0 26.4 2.2 28 4.9C29.6 2.2 33 0 37 0C42.5 0 47 4.5 47 10C47 21.4 29.3 33.3 28.6 33.8L28 34.2ZM19 2C14.6 2 11 5.6 11 10C11 19.3 25 29.7 28 31.8C31 29.7 45 19.3 45 10C45 5.6 41.4 2 37 2C32.4 2 29 5.6 29 8H27C27 5.6 23.6 2 19 2Z" fill="#B2BDC8"/>
<path d="M36 44C33.4 44 31 41.6 31 39C31 34.8 36.7 30 44 30H45V31C45 38.3 40.2 44 36 44ZM43 32C37.2 32.4 33 36.3 33 39C33 40.5 34.5 42 36 42C38.7 42 42.5 37.9 43 32Z" fill="#B2BDC8"/>
<path d="M20 54C15.8 54 11 48.3 11 41V40H12C19.3 40 25 44.8 25 49C25 51.6 22.6 54 20 54ZM13 42C13.4 47.8 17.3 52 20 52C21.5 52 23 50.5 23 49C23 46.3 18.9 42.5 13 42Z" fill="#B2BDC8"/>
<path d="M29 23H27V63H29V23Z" fill="#B2BDC8"/>
<path d="M29 50H27C27 46.6 29.2 44.4 29.3 44.3L37.3 36.3L38.7 37.7001L30.7 45.7001C30.7 45.7001 29 47.5 29 50Z" fill="#B2BDC8"/>
<path d="M29 60H27C27 57.4 25.3 55.7001 25.3 55.7001L17.3 47.7001L18.7001 46.3L26.7001 54.3C26.8001 54.4 29 56.6 29 60Z" fill="#B2BDC8"/>
<path d="M29 15H27V17H29V15Z" fill="#B2BDC8"/>
<path d="M29 19H27V21H29V19Z" fill="#B2BDC8"/>
<path d="M56 62H0V64H56V62Z" fill="#B2BDC8"/>
<path d="M43 10H41C41 7.8 39.2 6 37 6V4C40.3 4 43 6.7 43 10Z" fill="#B2BDC8"/>
<path d="M15 10H13C13 6.7 15.7 4 19 4V6C16.8 6 15 7.8 15 10Z" fill="#B2BDC8"/>
</svg>
