<svg width="64" height="64" viewBox="0 0 64 64" fill="none" xmlns="http://www.w3.org/2000/svg">
<path d="M19 64H17V53H12C8.1 53 5 49.9 5 46V38H0V34.8L5 21.8C5.1 9.8 14.9 0 27 0V2C16 2 7 11 7 22V22.2L2 35.2V36H7V46C7 48.8 9.2 51 12 51H19V64Z" fill="#B2BDC8"/>
<path d="M21 51H18V53H21V51Z" fill="#B2BDC8"/>
<path d="M46 51H43V53H46V51Z" fill="#B2BDC8"/>
<path d="M32 42C29.8 42 28 40.2 28 38C28 35.8 29.8 34 32 34C34.2 34 36 35.8 36 38C36 40.2 34.2 42 32 42ZM32 36C30.9 36 30 36.9 30 38C30 39.1 30.9 40 32 40C33.1 40 34 39.1 34 38C34 36.9 33.1 36 32 36Z" fill="#B2BDC8"/>
<path d="M47 64H45V51H52C54.8 51 57 48.8 57 46V36H62V35.2L57 22.2V22C57 11 48 2 37 2C26 2 17 11 17 22C17 29.2 22.1 35.4 29.2 36.7L28.8 38.7C20.8 37.2 15 30.2 15 22C15 9.9 24.9 0 37 0C49.1 0 58.9 9.8 59 21.8L64 34.8V38H59V46C59 49.9 55.9 53 52 53H47V64Z" fill="#B2BDC8"/>
<path d="M27 22H25V24H27V22Z" fill="#B2BDC8"/>
<path d="M27 26H25V28H27V26Z" fill="#B2BDC8"/>
<path d="M41 64H39V52C39 47 40.9 42.9 42.9 38.7C44.9 34.3 47 29.8 47 24V20C47 14.5 42.5 10 37 10C31.5 10 27 14.5 27 20H25C25 13.4 30.4 8 37 8C43.6 8 49 13.4 49 20V24C49 30.2 46.8 34.9 44.7 39.5C42.8 43.6 41 47.4 41 52V64Z" fill="#B2BDC8"/>
<path d="M37 28C32.6 28 29 24.4 29 20C29 15.6 32.6 12 37 12C41.4 12 45 15.6 45 20C45 24.4 41.4 28 37 28ZM37 14C33.7 14 31 16.7 31 20C31 23.3 33.7 26 37 26C40.3 26 43 23.3 43 20C43 16.7 40.3 14 37 14Z" fill="#B2BDC8"/>
</svg>
