<svg width="64" height="44" viewBox="0 0 64 44" fill="none" xmlns="http://www.w3.org/2000/svg">
<path d="M16.3 31.7L0.3 15.7C0.1 15.5 0 15.3 0 15V13C0 12.7 0.1 12.5 0.3 12.3L2.3 10.3C2.5 10.1 2.7 10 3 10H5V12H3.4L2 13.4V14.6L17.7 30.3L16.3 31.7Z" fill="#B2BDC8"/>
<path d="M17.3 24.7L0.3 7.7C0.1 7.5 0 7.3 0 7V5C0 4.7 0.1 4.5 0.3 4.3L2.3 2.3C2.5 2.1 2.7 2 3 2H5C5.3 2 5.5 2.1 5.7 2.3L20.7 17.3L19.3 18.7L4.6 4H3.4L2 5.4V6.6L18.7 23.3L17.3 24.7Z" fill="#B2BDC8"/>
<path d="M23.3 14.7L11.6 3H10.4L9 4.4V6H7V4C7 3.7 7.1 3.5 7.3 3.3L9.3 1.3C9.5 1.1 9.7 1 10 1H12C12.3 1 12.5 1.1 12.7 1.3L24.7 13.3L23.3 14.7Z" fill="#B2BDC8"/>
<path d="M28 44C23.4 44 18.6 42 15.3 38.7001L4.3 27.7001C3.9 27.3001 3.9 26.7 4.3 26.3L5.3 25.3C6.6 24 9.8 22.4 12.7 25.3L11.3 26.7001C10.3 25.7001 9.3 25.4 8.2 25.8C7.3 26.1 6.7 26.7001 6.7 26.7001L6.4 27L16.7 37.3C19.7 40.2 23.9 42 28 42C34.6 42 40 36.6 40 30C40 25.9 38.2 21.7001 35.3 18.7001L36.7 17.3C40 20.6 42 25.4 42 30C42 37.7001 35.7 44 28 44Z" fill="#B2BDC8"/>
<path d="M27.3 10.7L18.6 2H17.4L16 3.4V5H14V3C14 2.7 14.1 2.5 14.3 2.3L16.3 0.3C16.5 0.1 16.7 0 17 0H19C19.3 0 19.5 0.1 19.7 0.3L28.7 9.3L27.3 10.7Z" fill="#B2BDC8"/>
<path d="M47.7 31.7L46.3 30.3L62 14.6V13.4L60.6 12H59V10H61C61.3 10 61.5 10.1 61.7 10.3L63.7 12.3C63.9 12.5 64 12.7 64 13V15C64 15.3 63.9 15.5 63.7 15.7L47.7 31.7Z" fill="#B2BDC8"/>
<path d="M46.7 24.7L45.3 23.3L62 6.6V5.4L60.6 4H59.4L44.7 18.7L43.3 17.3L58.3 2.3C58.5 2.1 58.7 2 59 2H61C61.3 2 61.5 2.1 61.7 2.3L63.7 4.3C63.9 4.5 64 4.7 64 5V7C64 7.3 63.9 7.5 63.7 7.7L46.7 24.7Z" fill="#B2BDC8"/>
<path d="M40.7 14.7L39.3 13.3L51.3 1.3C51.5 1.1 51.7 1 52 1H54C54.3 1 54.5 1.1 54.7 1.3L56.7 3.3C56.9 3.5 57 3.7 57 4V6H55V4.4L53.6 3H52.4L40.7 14.7Z" fill="#B2BDC8"/>
<path d="M36 44C28.3 44 22 37.7 22 30C22 25.4 24 20.6 27.3 17.3L44.3 0.3C44.5 0.1 44.7 0 45 0H47C47.3 0 47.5 0.1 47.7 0.3L49.7 2.3C49.9 2.5 50 2.7 50 3V5H48V3.4L46.6 2H45.4L28.7 18.7C25.8 21.7 24 25.9 24 30C24 36.6 29.4 42 36 42C40.1 42 44.3 40.2 47.3 37.3L57.6 27L57.3 26.7C57.1 26.5 54.9 24.5 52.7 26.7L51.3 25.3C53.2 23.4 55.2 23.5 56.4 23.9C57.7 24.3 58.6 25.2 58.7 25.3L59.7 26.3C60.1 26.7 60.1 27.3 59.7 27.7L48.7 38.7C45.4 42 40.6 44 36 44Z" fill="#B2BDC8"/>
<path d="M33 29H31V31H33V29Z" fill="#B2BDC8"/>
<path d="M33 25H31V27H33V25Z" fill="#B2BDC8"/>
<path d="M33 33H31V35H33V33Z" fill="#B2BDC8"/>
</svg>
