<svg width="56" height="64" viewBox="0 0 56 64" fill="none" xmlns="http://www.w3.org/2000/svg">
<path d="M19 46C12.6 46 0 36.8 0 20C0 7.5 7.1 0 19 0C26.5 0 32.5 3.1 35.6 8.7L33.9 9.7C31.1 4.7 25.8 2 19 2C8.4 2 2 8.7 2 20C2 35.8 13.9 44 19 44C23 44 30.6 39.3 34.2 30.6L36 31.4C32.3 40.4 24.3 46 19 46Z" fill="#B2BDC8"/>
<path d="M23 52H15C14.7 52 14.3 51.8 14.1 51.5C13.9 51.2 13.9 50.8 14.1 50.5L17.1 44.5C17.3 44.2 17.6 43.9 18 43.9H20C20.4 43.9 20.7 44.1 20.9 44.5L23.9 50.5C24.1 50.8 24 51.2 23.9 51.5C23.7 51.8 23.3 52 23 52ZM16.6 50H21.4L19.4 46H18.6L16.6 50Z" fill="#B2BDC8"/>
<path d="M20 51H18V64H20V51Z" fill="#B2BDC8"/>
<path d="M46 22C47.1046 22 48 21.1046 48 20C48 18.8954 47.1046 18 46 18C44.8954 18 44 18.8954 44 20C44 21.1046 44.8954 22 46 22Z" fill="#B2BDC8"/>
<path d="M46 19H32V21H46V19Z" fill="#B2BDC8"/>
<path d="M46 23C44.3 23 43 21.7 43 20C43 18.3 44.3 17 46 17C47.7 17 49 18.3 49 20C49 21.7 47.7 23 46 23ZM46 19C45.4 19 45 19.4 45 20C45 20.6 45.4 21 46 21C46.6 21 47 20.6 47 20C47 19.4 46.6 19 46 19Z" fill="#B2BDC8"/>
<path d="M6 20H4C4 10.4 10 4 19 4V6C10 6 6 13 6 20Z" fill="#B2BDC8"/>
<path d="M30.136 24.497L28.1232 28.5219L29.912 29.4165L31.9248 25.3916L30.136 24.497Z" fill="#B2BDC8"/>
<path d="M28.489 21.1357L20.5288 25.1167L21.4234 26.9055L29.3836 22.9245L28.489 21.1357Z" fill="#B2BDC8"/>
<path d="M23.4053 14.0858L22.5109 15.8746L28.5034 18.8709L29.3978 17.0821L23.4053 14.0858Z" fill="#B2BDC8"/>
<path d="M29.9093 10.5853L28.1205 11.4797L30.133 15.5045L31.9218 14.6101L29.9093 10.5853Z" fill="#B2BDC8"/>
<path d="M51 15C49.4 15 48.6 14.3 47.9 13.8C47.3 13.3 46.9 13 46 13C45.1 13 44.7 13.3 44.1 13.8C43.4 14.3 42.6 15 41 15C39.4 15 38.6 14.3 37.9 13.8C37.3 13.3 36.9 13 36 13V11C37.6 11 38.4 11.7 39.1 12.2C39.7 12.7 40.1 13 41 13C41.9 13 42.3 12.7 42.9 12.2C43.6 11.7 44.4 11 46 11C47.6 11 48.4 11.7 49.1 12.2C49.7 12.7 50.1 13 51 13C51.9 13 52.3 12.7 52.9 12.2C53.6 11.7 54.4 11 56 11V13C55.1 13 54.7 13.3 54.1 13.8C53.4 14.3 52.6 15 51 15Z" fill="#B2BDC8"/>
<path d="M56 29C54.4 29 53.6 28.3 52.9 27.8C52.3 27.3 51.9 27 51 27C50.1 27 49.7 27.3 49.1 27.8C48.4 28.3 47.6 29 46 29C44.4 29 43.6 28.3 42.9 27.8C42.3 27.3 41.9 27 41 27C40.1 27 39.7 27.3 39.1 27.8C38.4 28.3 37.6 29 36 29V27C36.9 27 37.3 26.7 37.9 26.2C38.6 25.7 39.4 25 41 25C42.6 25 43.4 25.7 44.1 26.2C44.7 26.7 45.1 27 46 27C46.9 27 47.3 26.7 47.9 26.2C48.6 25.7 49.4 25 51 25C52.6 25 53.4 25.7 54.1 26.2C54.7 26.7 55.1 27 56 27V29Z" fill="#B2BDC8"/>
<path d="M35 24C32.8 24 31 22.2 31 20C31 17.8 32.8 16 35 16V18C33.9 18 33 18.9 33 20C33 21.1 33.9 22 35 22V24Z" fill="#B2BDC8"/>
</svg>
