<svg width="836" height="458" viewBox="0 0 836 458" fill="none" xmlns="http://www.w3.org/2000/svg">
<path d="M586.83 90.2241C489.933 69.9983 454.908 140.568 454.908 140.568C454.908 140.568 358.401 33.8049 236.554 22.6146C125.896 12.4368 65.1933 104.764 105.645 205.425C147.914 310.656 299.1 336.334 299.1 336.334C187.768 347.498 210.85 419.755 303.203 447.952H692.191C735.187 430.842 768.057 403.917 781.038 363.206C811.182 268.725 701.382 114.163 586.83 90.2241Z" fill="#F1F3FF"/>
<path d="M42.4502 343.552C19.1088 378.005 139.84 435.074 180.837 410.122C221.833 385.171 190.132 335.944 156.197 318.626C117.148 298.738 61.8191 314.966 42.4502 343.552Z" fill="#F1F3FF"/>
<path d="M250.864 352.737L249.527 353.062L272.56 448.118L273.897 447.794L250.864 352.737Z" fill="#212740"/>
<path d="M170.296 352.738L168.958 353.062L191.991 448.119L193.329 447.795L170.296 352.738Z" fill="#212740"/>
<path d="M781.585 447.277H31.7535V448.653H781.585V447.277Z" fill="#212740"/>
<path d="M141.064 352.737L118.041 447.794L119.378 448.118L142.402 353.061L141.064 352.737Z" fill="#212740"/>
<path d="M221.629 352.741L198.606 447.798L199.943 448.122L222.967 353.065L221.629 352.741Z" fill="#212740"/>
<path d="M430.712 32.4288C408.591 45.177 409.629 93.9888 446.601 91.4184C499.827 87.7055 465.892 12.2031 430.712 32.4288Z" fill="#F1F3FF"/>
<path d="M103.412 31.3903V30.0142C106.449 30.0142 108.942 27.5217 108.942 24.484C108.942 21.4462 106.449 18.9537 103.412 18.9537C100.374 18.9537 97.8814 21.4462 97.8814 24.484H96.5054C96.5054 20.6673 99.595 17.5776 103.412 17.5776C107.228 17.5776 110.318 20.6673 110.318 24.484C110.318 28.3006 107.228 31.3903 103.412 31.3903Z" fill="#212740"/>
<path d="M463.116 417.938C460.467 417.938 458.312 415.783 458.312 413.134C458.312 410.486 460.467 408.331 463.116 408.331C465.764 408.331 467.919 410.486 467.919 413.134C467.919 415.783 465.738 417.938 463.116 417.938ZM463.116 409.707C461.22 409.707 459.689 411.239 459.689 413.134C459.689 415.03 461.22 416.562 463.116 416.562C465.011 416.562 466.543 415.03 466.543 413.134C466.543 411.239 464.985 409.707 463.116 409.707Z" fill="#212740"/>
<path d="M9.52868 123.146C4.28401 123.146 0 118.862 0 113.617C0 108.373 4.28401 104.089 9.52868 104.089C14.7733 104.089 19.0574 108.373 19.0574 113.617C19.0574 118.862 14.7733 123.146 9.52868 123.146ZM9.52868 105.465C5.03696 105.465 1.37608 109.126 1.37608 113.617C1.37608 118.109 5.03696 121.77 9.52868 121.77C14.0204 121.77 17.6813 118.109 17.6813 113.617C17.6813 109.126 14.0204 105.465 9.52868 105.465Z" fill="#212740"/>
<path d="M387.323 25.1849C384.675 25.1849 382.52 23.03 382.52 20.3817C382.52 17.7334 384.675 15.5784 387.323 15.5784C389.972 15.5784 392.127 17.7334 392.127 20.3817C392.127 23.03 389.972 25.1849 387.323 25.1849ZM387.323 16.9544C385.428 16.9544 383.896 18.4863 383.896 20.3817C383.896 22.277 385.428 23.8089 387.323 23.8089C389.219 23.8089 390.75 22.277 390.75 20.3817C390.75 18.4863 389.219 16.9544 387.323 16.9544Z" fill="#212740"/>
<path d="M83.0603 299.31C83.0603 299.31 198.495 270.698 251.798 334.698C251.798 334.698 181.411 394.856 83.0603 299.31Z" fill="#D4D9FF"/>
<path d="M394.106 173.282C394.106 173.282 266.494 232.038 264.547 330.414C264.573 330.414 373.88 333.997 394.106 173.282Z" fill="#D4D9FF"/>
<path d="M48.0887 236.27C48.0887 236.27 142.623 189.899 200.729 235.335C200.729 235.335 151.087 300.556 48.0887 236.27Z" fill="#D4D9FF"/>
<path d="M303.104 106.997C303.104 106.997 209.634 155.471 211.608 229.182C211.608 229.182 293.575 228.013 303.104 106.997Z" fill="#D4D9FF"/>
<path d="M28.409 158.275C28.409 158.275 111.675 128.962 155.579 172.503C155.579 172.503 107.832 221.938 28.409 158.275Z" fill="#D4D9FF"/>
<path d="M193.329 41.4121C193.329 41.4121 138.26 109.749 164.509 165.337C164.509 165.337 226.666 136.933 193.329 41.4121Z" fill="#D4D9FF"/>
<path d="M284.826 448.055C279.919 362.038 236.352 279.733 200.678 225.832C161.992 167.414 124.007 128.858 123.617 128.468L124.396 127.689C124.786 128.079 162.849 166.687 201.586 225.209C224.331 259.585 242.869 293.987 256.655 327.454C273.895 369.334 283.762 409.889 285.917 447.978L284.826 448.055Z" fill="#212740"/>
<path d="M19.6346 34.6616C19.6346 34.6616 113.675 61.9495 125.203 129.559C125.203 129.559 50.2199 143.32 19.6346 34.6616Z" fill="#D4D9FF"/>
<path d="M100.04 254.782L98.5085 244.63H144.75L189.433 340.488L256.212 346.148V357.962H228.976L214.073 348.719L150.384 349.757C150.384 349.757 145.425 341.942 143.192 330.232C140.959 318.497 100.04 254.782 100.04 254.782Z" fill="#8CC8FF"/>
<path d="M86.1733 244.63L139.607 357.962H228.974V346.667L154.484 342.046L98.506 244.63H86.1733Z" fill="#8CC8FF"/>
<path d="M255.457 252.419C255.457 252.419 260.052 268.023 261.246 277.604C261.246 277.604 286.249 283.212 299.024 289.599C311.824 295.986 315.614 295.986 315.614 295.986H296.427L246.447 291.391L232.063 291.598C232.063 291.598 235.231 265.115 235.257 265.271C235.283 265.427 248.446 255.405 248.446 255.405L255.457 252.419Z" fill="#FF69A6"/>
<path d="M224.976 198.441C224.976 198.441 248.758 213.084 264.778 257.56C264.778 257.56 249.719 258.105 237.646 269.815C225.599 281.55 224.353 252.757 224.976 249.823C225.599 246.889 226.637 231.441 226.923 227.442C227.209 223.444 227.442 213.318 226.923 211.708C226.404 210.098 221.419 203.166 221.419 203.166L224.976 198.441Z" fill="#3687D6"/>
<path d="M342.432 428.297L336.305 438.968L339.369 447.978H392.594C392.594 447.978 392.231 438.968 374.913 438.968C374.913 438.968 365.306 430.452 363.904 429.959C362.502 429.465 349.313 428.245 348.404 428.297C347.495 428.375 342.432 428.297 342.432 428.297Z" fill="#212740"/>
<path d="M307.722 298.868C307.722 298.868 331.063 300.738 333.79 307.125C336.516 313.512 374.89 438.942 374.89 438.942H336.23L304.762 378.551C304.762 378.551 293.442 358.299 294.039 349.238C294.636 340.177 289.028 319.38 289.028 319.38L266.907 302.321L275.709 295.986H296.428L320.886 297.259L307.722 298.868Z" fill="#B9DDFF"/>
<path d="M282.764 428.297L276.636 438.968L279.7 447.978H332.925C332.925 447.978 334.224 440.682 323.033 438.968C323.033 438.968 296.836 429.362 295.434 428.868C294.032 428.375 289.644 428.245 288.735 428.297C287.826 428.349 282.764 428.297 282.764 428.297Z" fill="#212740"/>
<path d="M148.699 318.99C148.699 318.99 144.7 334.984 165.082 341.786C185.463 348.589 247.854 345.785 247.854 345.785L276.648 438.968H323.045C323.045 438.968 311.854 320.21 306.246 314.602C300.638 308.994 271.844 298.609 271.844 298.609L233.262 302.218L198.263 290.612C198.263 290.612 169.47 296.609 168.275 298.609C167.081 300.608 157.89 310.604 156.669 311.798C155.475 312.993 148.361 316.991 148.361 316.991L148.699 318.99Z" fill="#B9DDFF"/>
<path d="M198.284 290.612C198.284 290.612 169.49 296.609 168.296 298.609C167.101 300.608 157.91 310.604 156.69 311.798C155.807 312.681 151.809 315.018 149.706 316.238L149.005 326.987C150.329 331.998 154.301 338.177 165.102 341.786C167.517 342.591 170.554 343.266 173.982 343.811C182.679 323.43 200.958 300.53 200.958 300.53L207.734 293.727L198.284 290.612Z" fill="#9CCEFF"/>
<path d="M210.801 293.597C210.801 293.597 210.463 293.727 209.84 293.987C202.96 296.869 160.899 314.862 145.502 331.167C145.502 331.167 142.309 290.586 157.705 250.991C173.076 211.422 192.133 190.21 204.076 190.937L216.175 190.184L222.277 197.636L224.977 198.441C224.977 198.441 240.867 215.239 241.464 244.838C242.061 274.436 232.273 294.013 232.273 294.013C232.273 294.013 219.083 297.206 218.486 296.609C217.863 296.012 210.801 293.597 210.801 293.597Z" fill="#3687D6"/>
<path d="M351.167 222.624C365.596 208.196 365.596 184.803 351.167 170.375C336.739 155.946 313.346 155.946 298.918 170.375C284.49 184.803 284.49 208.196 298.918 222.624C313.346 237.052 336.739 237.052 351.167 222.624Z" fill="white"/>
<path d="M297.771 186.315L284.036 215.499L314.959 198.648L301.302 187.12L297.771 186.315Z" fill="white"/>
<path d="M269.349 243.695L288.458 217.42L289.574 218.225L272.931 241.099L300.946 232.142L301.232 232.375C306.035 236.27 311.54 239.022 317.589 240.528C340.126 246.136 363.026 232.349 368.608 209.813C374.216 187.276 360.429 164.376 337.893 158.794L338.23 157.47C361.494 163.26 375.722 186.887 369.932 210.15C365.025 229.909 347.24 243.15 327.741 243.15C324.288 243.15 320.757 242.735 317.252 241.852C311.124 240.32 305.542 237.568 300.635 233.673L269.349 243.695Z" fill="#212740"/>
<path d="M221.962 172.555H215.055C215.055 172.555 211.265 185.745 204.047 190.937C204.047 190.937 216.951 206.723 223.234 207.736C229.543 208.748 224.947 198.441 224.947 198.441L228.219 185.952C228.219 185.952 226.713 179.643 225.571 177.462C224.454 175.255 221.962 172.555 221.962 172.555Z" fill="#FFA5CA"/>
<path d="M225.598 177.436C224.455 175.229 221.963 172.529 221.963 172.529H215.056C215.056 172.529 214.225 175.437 212.59 179.072C212.901 186.523 215.316 195.896 225.234 197.402L228.246 185.926C228.246 185.952 226.74 179.643 225.598 177.436Z" fill="#FF69A6"/>
<path d="M258.655 174.788C258.655 174.788 249.724 189.042 240.792 192.703C231.861 196.364 218.074 189.769 218.256 169.985C218.256 169.985 210.466 162.793 210.804 162.118C211.142 161.442 217.606 141.996 217.606 141.398C217.606 140.801 234.743 130.598 235.08 130.675C235.418 130.753 249.074 141.009 249.074 141.009C249.074 141.009 254.605 143.138 254.994 143.346C255.384 143.553 268.599 147.085 268.599 147.085L269.326 149.811C269.326 149.785 266.938 161.442 258.655 174.788Z" fill="#FFA5CA"/>
<path d="M239.798 187.432C230.867 180.5 236.631 162.221 236.864 161.442L237.617 161.676C237.565 161.858 231.801 180.214 240.265 186.809L239.798 187.432Z" fill="#FF69A6"/>
<path d="M231.679 148.72C231.679 148.72 238.196 156.795 252.528 156.561C266.86 156.328 269.327 149.785 269.327 149.785C269.327 149.785 278.57 154.64 281.867 149.343C285.346 143.735 277.064 140.36 277.064 140.36C277.064 140.36 286.671 136.05 283.373 131.454C280.076 126.859 269.353 128.65 269.353 128.65C269.353 128.65 252.996 114.162 233.601 116.266C214.206 118.369 198.472 130.156 210.831 146.851C210.831 146.851 193.902 152.355 194.214 161.053C194.525 169.751 204.288 174.554 212.596 168.842C212.596 168.842 208.364 173.931 210.831 179.331C213.297 184.758 226.201 185.329 222.099 165.934L222.904 155.938C222.904 155.938 228.59 154.25 229.291 153.835C229.992 153.446 229.499 152.926 230.303 151.94C231.082 150.953 231.679 148.72 231.679 148.72Z" fill="#212740"/>
<path d="M251.72 164.947C252.681 163.675 252.914 162.221 252.239 161.728C251.564 161.235 250.266 161.884 249.305 163.156C248.345 164.428 248.111 165.882 248.786 166.375C249.461 166.869 250.759 166.22 251.72 164.947Z" fill="#212740"/>
<path d="M269.324 149.785C269.324 149.785 269.246 166.505 265.247 175.307C261.249 184.109 257.328 187.094 257.328 187.094C257.328 187.094 249.409 181.642 250.656 174.554C251.902 167.466 256.731 170.763 257.121 173.49C257.121 173.515 266.312 160.17 269.324 149.785Z" fill="#FF69A6"/>
<path d="M233.257 150.641C233.257 150.641 233.257 150.512 233.231 150.304C233.127 148.409 232.296 139.01 225.649 139.321C218.25 139.659 214.459 156.717 218.042 163.857C221.651 170.997 228.583 165.597 228.583 165.597C228.583 165.597 232.504 159.677 232.582 158.457C232.659 157.236 233.257 150.641 233.257 150.641Z" fill="#FFA5CA"/>
<path d="M225.955 163.39L225.228 163.078C225.28 162.948 230.81 149.395 225.617 142.281L226.267 141.814C231.719 149.317 226.189 162.818 225.955 163.39Z" fill="#FF69A6"/>
<path d="M227.781 153.705L223.238 149.006L223.835 148.435L228.378 153.16L227.781 153.705Z" fill="#FF69A6"/>
<path d="M187.067 273.216C187.067 273.216 196.466 305.619 204.073 320.808C204.073 320.808 248.861 321.612 286.456 298.816L294.063 298.609L293.051 284.614L281.86 290.819C281.86 290.819 255.066 286.432 236.268 289.028C236.268 289.028 236.865 273.034 234.658 261.636C232.452 250.238 212.434 255.249 212.537 255.639C212.641 256.028 200.646 263.038 199.867 264.233C199.062 265.427 193.48 269.841 192.467 270.438C191.481 271.009 187.067 273.216 187.067 273.216Z" fill="#FFA5CA"/>
<path d="M209.484 317.588C209.25 317.588 209.016 317.562 208.783 317.536C206.342 317.225 204.628 314.992 204.94 312.551C205.2 310.552 207.017 309.15 209.016 309.41C210.652 309.617 211.82 311.123 211.587 312.759C211.509 313.408 211.171 314.005 210.652 314.395C210.133 314.81 209.484 314.966 208.835 314.888L208.938 314.083C209.38 314.135 209.821 314.031 210.185 313.746C210.548 313.486 210.756 313.07 210.808 312.629C210.964 311.435 210.107 310.344 208.912 310.188C207.355 310.007 205.927 311.097 205.745 312.629C205.485 314.628 206.913 316.446 208.886 316.705C210.107 316.861 211.353 316.524 212.314 315.771C213.3 315.018 213.923 313.901 214.079 312.681C214.287 311.123 213.872 309.565 212.885 308.319C211.924 307.073 210.522 306.268 208.964 306.06L209.068 305.255C210.86 305.489 212.444 306.398 213.534 307.826C214.624 309.254 215.118 311.019 214.884 312.785C214.702 314.239 213.949 315.511 212.807 316.394C211.846 317.199 210.678 317.588 209.484 317.588Z" fill="#FF69A6"/>
<path d="M235.259 265.297C235.207 265.297 197.897 268.543 196.028 269.607C194.548 270.438 190.472 274.774 188.317 277.396C189.381 280.901 191.043 286.25 193.016 292.221C198.884 286.406 212.645 275.709 236.012 273.424C235.882 270.724 235.623 267.945 235.259 265.297Z" fill="#FF69A6"/>
<path d="M182.133 290.612C182.133 290.612 214.821 265.946 241.486 272.619C241.486 272.619 234.917 238.217 225.804 220.925C218.975 207.943 208.953 190.989 194.18 200.232C179.406 209.475 168.294 241.566 182.133 290.612Z" fill="#3687D6"/>
<path d="M303.592 440.942C301.723 440.942 300.554 440.137 300.243 439.332C300.035 438.786 300.165 438.241 300.606 437.826C301.022 437.436 301.645 437.255 302.553 437.255C304.916 437.255 308.317 438.527 308.473 438.579L309.226 438.864L308.551 439.306C306.422 440.656 304.682 440.942 303.592 440.942ZM302.553 438.06C301.878 438.06 301.385 438.189 301.151 438.397C300.944 438.579 300.892 438.787 300.996 439.02C301.203 439.565 302.164 440.137 303.592 440.137C304.449 440.137 305.747 439.929 307.383 439.046C306.24 438.683 304.111 438.06 302.553 438.06Z" fill="white"/>
<path d="M315.247 440.708C312.884 440.708 309.483 439.436 309.327 439.384L308.574 439.098L309.25 438.657C311.379 437.307 313.118 437.021 314.209 437.021C316.078 437.021 317.246 437.826 317.558 438.631C317.766 439.176 317.636 439.721 317.194 440.137C316.779 440.5 316.156 440.708 315.247 440.708ZM310.418 438.916C311.56 439.28 313.689 439.903 315.247 439.903C315.922 439.903 316.415 439.773 316.649 439.565C316.857 439.384 316.909 439.176 316.805 438.942C316.597 438.397 315.637 437.826 314.209 437.826C313.352 437.826 312.054 438.008 310.418 438.916Z" fill="white"/>
<path d="M356.378 440.942C354.508 440.942 353.34 440.137 353.029 439.332C352.821 438.786 352.951 438.241 353.392 437.826C353.807 437.436 354.431 437.255 355.339 437.255C357.702 437.255 361.103 438.527 361.259 438.579L362.012 438.864L361.337 439.306C359.208 440.656 357.468 440.942 356.378 440.942ZM355.339 438.06C354.664 438.06 354.171 438.189 353.937 438.397C353.73 438.579 353.678 438.787 353.781 439.02C353.989 439.565 354.95 440.137 356.378 440.137C357.235 440.137 358.533 439.929 360.169 439.046C359.026 438.683 356.897 438.06 355.339 438.06Z" fill="white"/>
<path d="M368.029 440.708C365.667 440.708 362.266 439.436 362.11 439.384L361.357 439.098L362.032 438.657C364.161 437.307 365.9 437.021 366.991 437.021C368.86 437.021 370.029 437.826 370.34 438.631C370.548 439.176 370.418 439.721 369.977 440.137C369.561 440.5 368.938 440.708 368.029 440.708ZM363.2 438.916C364.343 439.28 366.472 439.903 368.029 439.903C368.705 439.903 369.198 439.773 369.432 439.565C369.639 439.384 369.691 439.176 369.587 438.942C369.38 438.397 368.419 437.826 366.991 437.826C366.134 437.826 364.836 438.008 363.2 438.916Z" fill="white"/>
<path d="M313.02 444.109C311.904 441.928 309.931 440.422 309.1 439.851C308.347 441.59 308.633 443.174 308.633 443.174L307.854 443.33C307.828 443.252 307.49 441.227 308.607 439.072L308.788 438.708L309.152 438.916C309.282 438.994 312.216 440.734 313.747 443.745L313.02 444.109Z" fill="white"/>
<path d="M365.802 444.109C364.686 441.928 362.713 440.422 361.882 439.851C361.129 441.59 361.414 443.174 361.414 443.174L360.635 443.33C360.609 443.252 360.272 441.227 361.388 439.072L361.57 438.708L361.934 438.916C362.063 438.994 364.997 440.734 366.529 443.745L365.802 444.109Z" fill="white"/>
<path d="M628.942 362.194C723.998 362.194 801.056 285.136 801.056 190.08C801.056 95.0246 723.998 17.9668 628.942 17.9668C533.887 17.9668 456.829 95.0246 456.829 190.08C456.829 285.136 533.887 362.194 628.942 362.194Z" fill="#FFC9DF"/>
<path d="M650.208 359.286C626.841 359.286 604.175 354.716 582.859 345.681C562.243 336.957 543.757 324.494 527.867 308.604C511.978 292.715 499.489 274.203 490.791 253.613C481.756 232.271 477.186 209.631 477.186 186.264C477.186 162.896 481.756 140.23 490.791 118.914C499.515 98.2985 511.978 79.8124 527.867 63.9226C543.757 48.0328 562.269 35.5443 582.859 26.8464C604.201 17.8111 626.841 13.2415 650.208 13.2415C673.576 13.2415 696.242 17.8111 717.558 26.8464C738.173 35.5702 756.66 48.0328 772.549 63.9226C788.439 79.8124 800.928 98.3245 809.625 118.914C818.661 140.256 823.23 162.896 823.23 186.264C823.23 209.631 818.661 232.297 809.625 253.613C800.902 274.229 788.439 292.715 772.549 308.604C756.66 324.494 738.147 336.983 717.558 345.681C696.216 354.716 673.55 359.286 650.208 359.286ZM650.208 15.0589C555.804 15.0589 479.03 91.8595 479.03 186.238C479.03 280.616 555.83 357.416 650.208 357.416C744.586 357.416 821.387 280.616 821.387 186.238C821.387 91.8595 744.586 15.0589 650.208 15.0589Z" fill="#FFC9DF"/>
<path d="M559.076 289.184L394.544 355.053L480.848 200.31L559.076 289.184Z" fill="#FFC9DF"/>
<path d="M629.361 5.50438C629.361 5.50438 621.65 -0.0518548 610.693 4.1283C597.296 9.24315 552.82 36.9205 552.82 171.698L622.974 179.409L657.714 192.054L708.291 175.125L719.845 174.606C719.845 174.606 708.213 51.6419 687.234 21.5759C666.256 -8.49006 635.229 -0.103782 629.361 5.50438Z" fill="#212740"/>
<path d="M655.189 102.375C655.189 102.375 647.607 127.3 650.126 136.699C650.126 136.699 620.865 171.724 591.967 182.94L608.584 117.927C608.584 117.927 628.81 104.919 630.264 104.192C631.718 103.465 655.189 89.4968 655.189 89.4968V102.375Z" fill="#FFA5CA"/>
<path d="M650.444 92.301C643.512 96.4292 631.283 103.673 630.27 104.166C628.816 104.893 608.591 117.901 608.591 117.901L601.295 146.487C610.927 145.163 635.152 138.205 655.196 102.375V90.5095L650.444 92.301Z" fill="#FF69A6"/>
<path d="M547.185 161.235C547.185 161.235 573.434 149.369 591.868 146.825L582.184 192.053L665.657 152.926H667.812C667.812 152.926 690.219 156.535 719.843 174.606L669.63 307.177L660.387 359.312C650.183 361.181 639.693 362.194 628.944 362.194C596.698 362.194 566.554 353.314 540.746 337.892C537.63 324.157 533.865 303.542 531.659 276.825C527.323 224.82 539.603 182.914 539.603 182.914L547.185 161.235Z" fill="#B9DDFF"/>
<path d="M649.633 133.064C649.633 133.064 665.289 143.449 672.507 153.991C672.507 153.991 636.028 196.312 595.576 217.264C595.576 217.264 593.058 195.948 591.967 182.94C591.967 182.914 631.432 157.963 649.633 133.064Z" fill="white"/>
<path d="M604.717 133.064C604.717 133.064 589.528 138.464 577.585 150.044C577.585 150.044 568.861 165.233 564.889 211.838C564.889 211.838 575.716 199.557 591.969 182.94L604.717 133.064Z" fill="white"/>
<path d="M573.559 192.677L564.888 211.812C564.888 211.812 563.07 250.472 571.742 275.735C571.742 275.735 642.493 213.24 666.172 156.899L601.289 184.342L591.994 182.888L573.559 192.677Z" fill="white"/>
<path d="M541.083 211.916L539.525 211.734C539.551 211.552 541.706 193.897 550.3 174.814C555.363 163.571 561.62 154.017 568.942 146.435C578.107 136.933 588.908 130.494 601.059 127.3L601.449 128.806C574.524 135.868 559.543 158.067 551.702 175.437C543.238 194.312 541.109 211.734 541.083 211.916Z" fill="#212740"/>
<path d="M683.259 192.106L681.702 192.028C683.259 163.416 674.51 146.747 666.902 137.815C658.698 128.157 650.052 125.223 649.974 125.171L650.467 123.691C650.831 123.821 659.606 126.807 668.097 136.803C673.082 142.645 676.898 149.681 679.495 157.704C682.662 167.7 683.96 179.279 683.259 192.106Z" fill="#212740"/>
<path d="M630.033 267.193C636.815 267.193 642.313 261.694 642.313 254.912C642.313 248.129 636.815 242.631 630.033 242.631C623.25 242.631 617.752 248.129 617.752 254.912C617.752 261.694 623.25 267.193 630.033 267.193Z" fill="#212740"/>
<path d="M617.621 21.8354C617.621 21.8354 597.396 31.468 586.309 61.5599C575.223 91.6518 587.504 123.457 609.183 124.418C630.863 125.379 651.089 105.153 659.034 87.0822C666.978 69.0115 668.666 52.161 667.472 51.6937C666.277 51.2004 630.863 24.9771 630.863 24.9771L617.621 21.8354Z" fill="#FFA5CA"/>
<path d="M622.924 60.6614C623.303 58.0504 622.459 55.7668 621.04 55.5609C619.621 55.355 618.164 57.3047 617.785 59.9157C617.406 62.5267 618.249 64.8102 619.668 65.0162C621.087 65.2221 622.545 63.2724 622.924 60.6614Z" fill="black"/>
<path d="M596.046 59.8059C596.425 57.1949 595.581 54.9113 594.162 54.7054C592.743 54.4995 591.286 56.4492 590.907 59.0602C590.528 61.6712 591.371 63.9548 592.79 64.1607C594.209 64.3666 595.667 62.4169 596.046 59.8059Z" fill="black"/>
<path d="M586.652 75.6582C578.161 75.6582 571.255 68.7518 571.255 60.2617C571.255 51.7716 578.161 44.8652 586.652 44.8652C595.142 44.8652 602.048 51.7716 602.048 60.2617C602.048 68.7518 595.142 75.6582 586.652 75.6582ZM586.652 46.3971C579.018 46.3971 572.813 52.6024 572.813 60.2357C572.813 67.8691 579.018 74.0744 586.652 74.0744C594.285 74.0744 600.49 67.8691 600.49 60.2357C600.49 52.6024 594.285 46.3971 586.652 46.3971Z" fill="#141726"/>
<path d="M609.679 48.3704C609.679 48.3704 602.825 68.4143 603.708 82.8761L585.767 90.5354C585.767 90.5094 592.777 64.1303 609.679 48.3704Z" fill="#FF69A6"/>
<path d="M635.999 59.5637L635.382 60.9944L660.706 71.9024L661.322 70.4717L635.999 59.5637Z" fill="#141726"/>
<path d="M606.407 59.4829H599.942V61.0407H606.407V59.4829Z" fill="#141726"/>
<path d="M657.114 75.5286C657.114 75.5286 668.668 60.1061 676.613 66.623C684.558 73.114 666.253 103.959 649.637 93.833C633.02 83.7071 647.222 80.4357 647.222 80.4357L657.114 75.5286Z" fill="#FFA5CA"/>
<path d="M659.532 84.5899L658.078 84.0447C658.286 83.5254 663.063 71.2705 672.54 71.2705V72.8283C664.128 72.8024 659.558 84.4601 659.532 84.5899Z" fill="#FF69A6"/>
<path d="M662.778 76.8078L662.65 78.3604L669.558 78.9325L669.687 77.38L662.778 76.8078Z" fill="#FF69A6"/>
<path d="M621.047 75.6582C612.557 75.6582 605.65 68.7518 605.65 60.2617C605.65 51.7716 612.557 44.8652 621.047 44.8652C629.537 44.8652 636.443 51.7716 636.443 60.2617C636.443 68.7518 629.537 75.6582 621.047 75.6582ZM621.047 46.3971C613.414 46.3971 607.208 52.6024 607.208 60.2357C607.208 67.8691 613.414 74.0744 621.047 74.0744C628.68 74.0744 634.886 67.8691 634.886 60.2357C634.886 52.6024 628.68 46.3971 621.047 46.3971Z" fill="#141726"/>
<path d="M719.839 174.606C719.839 174.606 676.142 194.468 669.625 296.09C669.625 296.09 604.379 284.978 568.237 283.576C568.237 283.576 563.434 302.347 564.862 338.956C564.862 338.956 667.444 376.032 748.841 362.064C748.841 362.064 762.082 252.497 719.839 174.606Z" fill="#B9DDFF"/>
<path d="M705.202 315.095C686.196 296.246 672.929 297.57 672.28 297.648H672.254L672.02 296.116C672.02 296.116 672.046 296.116 672.072 296.116C693.31 293.208 701.879 296.116 702.216 296.246L701.697 297.726C701.619 297.7 694.998 295.493 679.264 296.869C680.017 297.051 680.848 297.284 681.705 297.57C687.183 299.361 695.907 303.671 706.292 314.005L705.202 315.095Z" fill="#96CCFF"/>
<path d="M702.918 267.296L701.386 267.089C701.412 266.907 703.723 249.252 702.451 231.311C701.724 220.821 699.906 212.279 697.128 205.97C693.701 198.207 688.742 193.793 682.381 192.859C667.166 190.574 654.262 199.375 643.981 218.978C636.269 233.751 633.05 249.381 633.024 249.537L631.492 249.226C631.518 249.07 634.763 233.206 642.604 218.251C647.226 209.423 652.497 202.621 658.312 198.025C665.634 192.235 673.813 189.977 682.615 191.301C689.521 192.339 694.895 197.065 698.556 205.347C701.438 211.838 703.256 220.562 704.009 231.233C705.255 249.33 702.944 267.115 702.918 267.296Z" fill="#212740"/>
<path d="M701.227 282.2C708.01 282.2 713.508 276.701 713.508 269.919C713.508 263.136 708.01 257.638 701.227 257.638C694.444 257.638 688.946 263.136 688.946 269.919C688.946 276.701 694.444 282.2 701.227 282.2Z" fill="#212740"/>
<path d="M604.434 222.353L588.44 187.484L567.124 204.36L566.163 203.14L589.037 185.043L605.031 219.887C610.873 215.083 647.975 184.29 658.152 168.089L659.477 168.92C648.312 186.653 606.952 220.302 605.212 221.73L604.434 222.353Z" fill="#96CCFF"/>
<path d="M574.132 263.246L572.6 262.961C572.704 262.467 582.388 212.072 587.971 186.082L589.502 186.42C583.894 212.383 574.21 262.753 574.132 263.246Z" fill="#96CCFF"/>
<path d="M593.376 226.949C591.558 226.949 590.078 225.469 590.078 223.651C590.078 221.834 591.558 220.354 593.376 220.354C595.193 220.354 596.673 221.834 596.673 223.651C596.673 225.469 595.193 226.949 593.376 226.949ZM593.376 221.912C592.415 221.912 591.636 222.691 591.636 223.651C591.636 224.612 592.415 225.391 593.376 225.391C594.336 225.391 595.115 224.612 595.115 223.651C595.115 222.691 594.336 221.912 593.376 221.912Z" fill="#96CCFF"/>
<path d="M588.311 250.446C586.494 250.446 585.014 248.966 585.014 247.148C585.014 245.331 586.494 243.851 588.311 243.851C590.129 243.851 591.608 245.331 591.608 247.148C591.608 248.966 590.129 250.446 588.311 250.446ZM588.311 245.409C587.35 245.409 586.571 246.188 586.571 247.148C586.571 248.109 587.35 248.888 588.311 248.888C589.272 248.888 590.051 248.109 590.051 247.148C590.051 246.188 589.272 245.409 588.311 245.409Z" fill="#96CCFF"/>
<path d="M594.726 103.933C594.726 103.933 598.724 95.2089 624.325 95.858C624.325 95.858 624.844 106.243 615.886 110.579C608.695 114.059 598.595 112.215 594.726 103.933Z" fill="#FF69A6"/>
<path d="M601.477 105.932C601.425 105.932 601.373 105.932 601.321 105.932C594.882 105.88 591.585 103.076 591.455 102.972L592.468 101.804C592.494 101.83 595.531 104.4 601.451 104.4C606.981 104.4 616.224 102.115 628.843 91.2104L629.855 92.3788C619.47 101.362 609.915 105.932 601.477 105.932Z" fill="#212740"/>
<path d="M625.959 283.731C624.894 283.731 623.856 283.705 622.817 283.627C617.079 283.186 611.653 281.576 606.694 278.85C598.255 274.177 594.179 267.893 593.997 267.634L595.296 266.803C595.348 266.855 599.372 273.06 607.499 277.552C614.976 281.68 627.543 285.159 645.016 278.331L645.587 279.785C638.785 282.407 632.216 283.731 625.959 283.731Z" fill="#96CCFF"/>
<path d="M589.478 27.4957C596.073 25.1071 617.596 21.8356 617.596 21.8356C617.596 21.8356 634.343 57.6136 665.629 67.376L675.106 57.6396L667.888 25.0032C667.888 25.0032 627.073 8.93168 621.024 8.59415C614.974 8.25662 601.888 8.25662 601.265 12.3589C600.642 16.4612 589.478 27.4957 589.478 27.4957Z" fill="#212740"/>
<path d="M731.057 166.635C731.005 166.323 726.617 134.985 717.659 100.324C712.389 79.9941 706.625 62.5205 700.497 48.3963C692.864 30.8189 684.659 18.4082 676.143 11.5538L677.13 10.3335C685.854 17.3437 694.214 29.9361 701.951 47.7731C708.105 61.9753 713.921 79.5267 719.191 99.9342C728.175 134.674 732.588 166.09 732.64 166.401L731.057 166.635Z" fill="#212740"/>
<path d="M536.197 157.054L534.666 156.743C534.717 156.509 539.599 132.181 548.686 103.491C554.008 86.6409 559.72 71.582 565.666 58.7559C573.092 42.6844 580.933 30.092 588.904 21.2903L590.046 22.3288C572.183 42.0353 558.5 77.6055 550.166 103.959C541.13 132.597 536.249 156.821 536.197 157.054Z" fill="#212740"/>
<path d="M599.008 77.6056C599.008 77.6056 605.577 72.9841 606.408 78.1768C607.706 86.2515 585.767 90.5096 585.767 90.5096C585.767 90.5096 593.192 80.903 594.698 80.4357C596.23 79.9424 599.008 77.6056 599.008 77.6056Z" fill="#FF69A6"/>
<path d="M804.741 360.48C810.563 360.48 815.283 355.761 815.283 349.939C815.283 344.117 810.563 339.397 804.741 339.397C798.919 339.397 794.2 344.117 794.2 349.939C794.2 355.761 798.919 360.48 804.741 360.48Z" fill="#FF69A6"/>
<path d="M794.847 336.202C798.964 332.086 798.964 325.411 794.847 321.295C790.73 317.178 784.056 317.178 779.94 321.295C775.823 325.411 775.823 332.086 779.94 336.202C784.056 340.319 790.73 340.319 794.847 336.202Z" fill="#FF69A6"/>
<path d="M762.281 333.409C768.028 332.477 771.93 327.062 770.998 321.315C770.065 315.569 764.65 311.666 758.904 312.599C753.157 313.531 749.255 318.946 750.187 324.693C751.12 330.439 756.535 334.342 762.281 333.409Z" fill="#FF69A6"/>
<path d="M741.069 343.316C745.186 339.199 745.186 332.525 741.069 328.408C736.953 324.292 730.279 324.292 726.162 328.408C722.045 332.525 722.045 339.199 726.162 343.316C730.279 347.432 736.953 347.432 741.069 343.316Z" fill="#FF69A6"/>
<path d="M717.493 368.402C723.159 367.064 726.668 361.386 725.33 355.72C723.992 350.055 718.314 346.546 712.649 347.884C706.983 349.222 703.474 354.899 704.812 360.565C706.15 366.231 711.828 369.739 717.493 368.402Z" fill="#FF69A6"/>
<path d="M756.527 375.331L756.267 375.227L714.829 358.818L715.348 357.546L756.475 373.825L804.43 350.795L805.027 352.042L756.527 375.331Z" fill="#212740"/>
<path d="M756.476 375.85L733.031 336.23L734.199 335.529L756.554 373.306L786.828 328.363L787.97 329.116L756.476 375.85Z" fill="#212740"/>
<path d="M759.9 322.954L755.829 374.514L757.201 374.622L761.271 323.063L759.9 322.954Z" fill="#212740"/>
<path d="M728.071 448.003L726.695 447.9C728.331 426.454 736.198 407.552 742.507 395.453C749.335 382.367 755.878 374.215 755.956 374.137L757.02 374.994C756.969 375.071 750.478 383.146 743.701 396.128C737.47 408.097 729.707 426.817 728.071 448.003Z" fill="#212740"/>
<path d="M752.294 419.859C752.294 419.859 760.239 382.601 806.766 379.641C806.766 379.641 797.211 420.897 752.294 419.859Z" fill="#D4D9FF"/>
<path d="M753.98 420.56C753.409 420.56 752.864 420.56 752.293 420.534L751.462 420.508L751.644 419.703C751.722 419.314 753.747 410.122 761.562 400.412C766.157 394.726 771.791 390.053 778.308 386.547C786.461 382.186 796.016 379.615 806.739 378.94L807.647 378.888L807.44 379.797C807.336 380.212 804.999 390.13 797.21 400.178C792.64 406.098 787.136 410.824 780.879 414.199C773.064 418.431 764.002 420.56 753.98 420.56ZM753.175 419.184C753.435 419.184 753.695 419.184 753.98 419.184C776.153 419.184 789.161 408.383 796.145 399.322C802.403 391.221 805.103 383.042 805.882 380.368C782.696 382.108 769.585 392.649 762.626 401.269C756.317 409.11 753.851 416.743 753.175 419.184Z" fill="#212740"/>
<path d="M806.333 379.067L751.857 419.282L752.675 420.389L807.15 380.174L806.333 379.067Z" fill="#212740"/>
<path d="M765.456 410.304L767.222 398.439L768.572 398.647L767.066 408.824L784.513 407.63L784.617 408.98L765.456 410.304Z" fill="#212740"/>
<path d="M780.7 399.192L781.635 388.365L783.011 388.495L782.232 397.478L796.045 394.544L796.33 395.894L780.7 399.192Z" fill="#212740"/>
<path d="M322.388 439.046L305.642 315.095L278.432 305.93L278.847 304.71L306.836 314.109L323.686 438.864L322.388 439.046Z" fill="#9CCEFF"/>
<path d="M246.966 345.395L248.109 343.5C251.796 337.424 258.962 333.504 259.247 333.322L259.87 334.464C259.818 334.49 254.184 337.606 250.471 342.357C254.314 340.877 262.882 338.177 272.385 339.501L272.203 340.8C260 339.112 249.043 344.383 248.94 344.434L246.966 345.395Z" fill="#9CCEFF"/>
<path d="M181.798 291.391L181.616 290.742C181.59 290.612 177.903 277.266 176.579 260.442C175.8 250.55 176.008 241.411 177.15 233.258C178.578 223.054 181.538 214.382 185.926 207.502L186.86 208.099C177.124 223.392 176.501 244.968 177.695 260.364C178.838 275.008 181.772 286.977 182.525 289.833L188.107 287.029L188.6 288.015L181.798 291.391Z" fill="white"/>
<path d="M242.19 273.294L235.932 272.229L236.114 271.165L240.762 271.97C239.178 265.271 227.598 218.796 211.734 207.19L212.383 206.308C219.679 211.656 226.897 224.43 233.829 244.293C238.97 259.04 242.008 272.411 242.034 272.541L242.19 273.294Z" fill="white"/>
<path d="M150.872 173.178C106.63 164.688 35.6191 159.651 34.8921 159.599L34.97 158.301C35.671 158.353 106.786 163.39 151.106 171.906L150.872 173.178Z" fill="#AEB7F5"/>
<path d="M166.428 162.325L165.181 161.988C165.389 161.209 185.874 84.4081 190.859 47.8772L192.158 48.0589C187.147 84.6678 166.635 161.546 166.428 162.325Z" fill="#AEB7F5"/>
<path d="M119.383 125.119C92.5624 96.5849 23.9404 40.0879 23.2394 39.5167L24.0702 38.5042C24.7712 39.0754 93.4452 95.6243 120.318 124.236L119.383 125.119Z" fill="#AEB7F5"/>
<path d="M72.8286 174.424L71.9977 173.438L83.967 163.26L78.0473 152.926L79.1637 152.277L85.6287 163.545L72.8286 174.424Z" fill="#AEB7F5"/>
<path d="M107.957 185.277L106.814 184.68L115.564 167.18L106.892 157.029L107.879 156.198L117.122 166.999L107.957 185.277Z" fill="#AEB7F5"/>
<path d="M173.801 130.961L166.895 120.757L167.96 120.03L174.217 129.247L193.845 118.265L194.495 119.407L173.801 130.961Z" fill="#AEB7F5"/>
<path d="M183.591 90.0681L176.217 82.8502L177.126 81.9155L183.721 88.3805L193.794 81.3184L194.547 82.3829L183.591 90.0681Z" fill="#AEB7F5"/>
<path d="M63.0388 72.3609H45.072V71.0627H61.7407V61.1965H63.0388V72.3609Z" fill="#AEB7F5"/>
<path d="M104.402 109.229L68.7278 104.011L68.9355 102.738L102.455 107.62L95.8598 89.445L97.0801 89.0037L104.402 109.229Z" fill="#AEB7F5"/>
<path d="M197.609 173.697C195.869 173.697 194.234 173.412 192.858 172.737C190.495 171.594 187.898 168.894 188.833 162.533C189.794 156.016 194.13 151.083 201.374 148.305C205.164 146.851 208.799 146.331 210.695 146.15C209.5 145.059 207.501 143.034 205.787 140.256C202.308 134.648 201.659 128.65 203.892 122.886C205.917 117.616 211.499 113.877 219.6 112.371C234.685 109.541 257.403 114.76 271.631 130.286L270.827 131.013C256.884 115.798 234.607 110.631 219.808 113.435C212.097 114.889 206.8 118.395 204.905 123.276C199.816 136.413 212.278 146.072 212.408 146.15L213.654 147.084L212.097 147.136C212.045 147.136 207.008 147.292 201.763 149.317C194.831 151.992 190.858 156.483 189.95 162.663C189.275 167.232 190.443 170.296 193.377 171.724C198.647 174.268 207.968 170.945 212.201 166.479L213.005 167.232C209.552 170.841 203.035 173.697 197.609 173.697Z" fill="#212740"/>
<path d="M173.879 369.827H137.478V371.203H173.879V369.827Z" fill="#212740"/>
<path d="M254.34 369.827H217.939V371.203H254.34V369.827Z" fill="#212740"/>
<path d="M139.604 358.637H139.163L85.0804 243.955H98.8931L99.1008 244.293L133.113 303.49L131.919 304.165L98.0883 245.305H87.2614L140.02 357.287L251.482 357.261V358.637H139.604Z" fill="#212740"/>
<path d="M573.223 456.624H437.018V458H573.223V456.624Z" fill="#212740"/>
<path d="M337.647 216.464C344.613 209.498 344.613 198.204 337.647 191.238C330.681 184.273 319.387 184.273 312.422 191.238C305.456 198.204 305.456 209.498 312.422 216.464C319.387 223.429 330.681 223.429 337.647 216.464Z" fill="#FF69A6"/>
<path d="M309.691 194.754L325.035 171.283L340.406 194.754H309.691Z" fill="#FF69A6"/>
<path d="M39.4872 303.438C31.8798 303.438 25.7004 297.258 25.7004 289.651C25.7004 287.548 26.1678 285.471 27.1025 283.602H26.9986L27.6737 282.563C27.8554 282.277 28.0372 281.992 28.2449 281.68L39.5131 264.466L50.7814 281.706C50.9891 281.992 51.1708 282.277 51.3266 282.563L52.0017 283.602H51.8978C52.8065 285.471 53.2999 287.548 53.2999 289.651C53.2739 297.258 47.0945 303.438 39.4872 303.438ZM28.7901 283.186L28.7382 283.29C27.5958 285.211 26.9986 287.418 26.9986 289.651C26.9986 296.531 32.6068 302.14 39.4872 302.14C46.3675 302.14 51.9757 296.531 51.9757 289.651C51.9757 287.418 51.3785 285.211 50.2361 283.29L50.1582 283.186C50.0025 282.952 49.8467 282.719 49.6909 282.459L39.4872 266.855L29.2834 282.433C29.1017 282.693 28.9199 282.926 28.7901 283.186Z" fill="#FF69A6"/>
<path d="M261.69 84.9273C254.083 84.9273 247.904 78.748 247.904 71.1406C247.904 69.0375 248.371 66.9604 249.306 65.0911H249.202L249.877 64.0525C250.059 63.7669 250.24 63.4813 250.448 63.1697L261.716 45.9558L272.985 63.1957C273.192 63.4813 273.374 63.7669 273.53 64.0525L274.205 65.0911H274.101C275.01 66.9604 275.503 69.0375 275.503 71.1406C275.503 78.748 269.298 84.9273 261.69 84.9273ZM250.993 64.6756L250.941 64.7795C249.799 66.7008 249.202 68.9077 249.202 71.1406C249.202 78.021 254.81 83.6291 261.69 83.6291C268.571 83.6291 274.179 78.021 274.179 71.1406C274.179 68.9077 273.582 66.7008 272.439 64.7795L272.361 64.6756C272.206 64.442 272.05 64.2083 271.894 63.9487L261.69 48.3445L251.487 63.9227C251.305 64.1823 251.149 64.442 250.993 64.6756Z" fill="#FF69A6"/>
<path d="M523.064 413.783C513.145 413.783 505.071 405.709 505.071 395.791C505.071 392.935 505.746 390.131 507.044 387.612H506.94L507.615 386.573C507.849 386.21 508.083 385.821 508.368 385.431L523.064 362.947L537.785 385.431C538.045 385.795 538.304 386.184 538.512 386.548L539.213 387.586H539.109C540.407 390.105 541.082 392.909 541.082 395.765C541.082 405.709 533.008 413.783 523.064 413.783ZM508.758 387.171L508.706 387.275C507.174 389.845 506.369 392.779 506.369 395.791C506.369 405.008 513.872 412.485 523.064 412.485C532.281 412.485 539.758 404.982 539.758 395.791C539.758 392.805 538.953 389.845 537.422 387.275L537.318 387.119C537.136 386.807 536.928 386.496 536.695 386.158L523.064 365.309L509.433 386.132C509.173 386.496 508.965 386.833 508.758 387.171Z" fill="#FF69A6"/>
<path d="M546.197 291.962V179.487C523.53 181.357 508.419 169.517 480.768 159.599C452.182 149.369 422.038 160.118 409.965 165.441V291.936C409.965 294.428 411.938 296.843 413.6 298.427C416.69 301.361 421.467 304.165 427.439 306.579C433.878 309.176 441.459 311.227 449.923 312.655C458.829 314.161 468.306 314.94 478.068 314.94C487.83 314.94 497.307 314.161 506.213 312.655C514.677 311.201 522.258 309.176 528.697 306.579C534.669 304.165 539.472 301.361 542.536 298.427C544.223 296.869 546.197 294.454 546.197 291.962Z" fill="#FF69A6"/>
<path d="M478.092 315.745C468.278 315.745 458.749 314.966 449.818 313.46C441.302 312.006 433.668 309.955 427.178 307.332C421.102 304.892 416.221 302.01 413.079 299.024C411.314 297.336 409.185 294.74 409.185 291.988V125.664L409.652 125.457C411.937 124.444 417.908 122.497 432.163 120.913C444.885 119.485 461.216 118.706 478.092 118.706C494.969 118.706 511.3 119.485 524.022 120.913C538.25 122.497 544.222 124.444 546.533 125.457L547 125.664V291.962C547 294.74 544.897 297.31 543.105 298.998C539.964 301.984 535.083 304.866 529.007 307.306C522.516 309.929 514.883 311.98 506.367 313.434C497.409 314.966 487.907 315.745 478.092 315.745ZM410.743 126.703V291.962C410.743 294.169 412.586 296.402 414.144 297.882C417.156 300.738 421.855 303.516 427.749 305.878C434.136 308.449 441.665 310.474 450.078 311.902C458.931 313.408 468.356 314.161 478.092 314.161C487.829 314.161 497.254 313.408 506.107 311.902C514.519 310.474 522.023 308.449 528.436 305.878C534.33 303.516 539.029 300.738 542.041 297.882C543.599 296.402 545.442 294.195 545.442 291.962V126.703C542.924 125.69 537.004 123.951 523.866 122.471C511.196 121.069 494.943 120.29 478.118 120.29C461.294 120.29 445.041 121.069 432.37 122.471C419.181 123.925 413.261 125.664 410.743 126.703Z" fill="#212740"/>
<path d="M516.262 190.496H439.903V240.502H516.262V190.496Z" fill="white"/>
<path d="M503.437 207.035H452.756V208.592H503.437V207.035Z" fill="#212740"/>
<path d="M487.417 214.616H452.756V216.174H487.417V214.616Z" fill="#212740"/>
<path d="M470.099 222.197H452.756V223.755H470.099V222.197Z" fill="#212740"/>
<path d="M478.095 341.708C472.306 341.708 467.58 337.009 467.58 331.193C467.58 325.403 472.28 320.678 478.095 320.678C483.911 320.678 488.611 325.377 488.611 331.193C488.585 336.983 483.885 341.708 478.095 341.708ZM478.095 322.054C473.059 322.054 468.956 326.156 468.956 331.193C468.956 336.23 473.059 340.332 478.095 340.332C483.132 340.332 487.235 336.23 487.235 331.193C487.209 326.156 483.132 322.054 478.095 322.054Z" fill="#212740"/>
<path d="M432.79 359.052C427 359.052 422.274 354.327 422.274 348.537V313.148C409.137 307.41 401.919 299.907 401.919 291.962V123.665C401.919 119.589 409.838 116.551 426.091 114.318C439.8 112.449 458.286 111.436 478.096 111.436C497.907 111.436 516.367 112.475 530.102 114.318C546.381 116.525 554.274 119.589 554.274 123.665V291.962C554.274 298.557 549.367 304.84 540.046 310.111C531.218 315.122 519.119 318.886 504.969 321.041C505.021 321.742 505.047 322.443 505.047 323.17C505.047 338.047 492.948 350.121 478.096 350.121C463.245 350.121 451.146 338.021 451.146 323.17C451.146 322.469 451.172 321.742 451.224 321.041C448.55 320.626 445.901 320.158 443.331 319.613V348.511C443.305 354.327 438.58 359.052 432.79 359.052ZM478.096 112.812C458.338 112.812 439.956 113.825 426.299 115.694C405.528 118.524 403.295 122.211 403.295 123.665V291.962C403.295 299.413 410.383 306.553 423.235 312.084L423.651 312.265V348.537C423.651 353.574 427.753 357.702 432.816 357.702C437.853 357.702 441.981 353.6 441.981 348.537V317.952L442.812 318.133C445.798 318.782 448.913 319.328 452.081 319.821L452.73 319.925L452.652 320.574C452.574 321.431 452.522 322.339 452.522 323.196C452.522 337.32 463.998 348.796 478.122 348.796C492.247 348.796 503.723 337.32 503.723 323.196C503.723 322.313 503.671 321.431 503.593 320.574L503.515 319.925L504.164 319.821C533.321 315.485 552.924 304.295 552.924 291.988V123.665C552.924 122.211 550.691 118.498 529.92 115.694C516.237 113.825 497.829 112.812 478.096 112.812Z" fill="#212740"/>
<path d="M393.11 220.406C393.11 220.406 398.173 201.634 411.882 191.508C411.882 191.508 424.89 226.196 418.373 253.639C418.373 253.639 409.337 256.885 399.238 255.457C399.263 255.431 393.474 237.386 393.11 220.406Z" fill="#FFA5CA"/>
<path d="M400.617 223.547L399.319 222.691C403.811 215.862 414.794 204.438 415.235 203.945L416.351 205.035C416.274 205.165 405.057 216.849 400.617 223.547Z" fill="#FF69A6"/>
<path d="M419.176 223.796L404.157 230.721L404.809 232.135L419.828 225.211L419.176 223.796Z" fill="#FF69A6"/>
<path d="M419.359 239.855L404.341 242.744L404.636 244.274L419.653 241.385L419.359 239.855Z" fill="#FF69A6"/>
<path d="M568.242 283.576C568.242 283.576 555.13 256.236 532.723 243.955L542.122 263.765C542.122 263.765 515.743 259.014 495.154 269.555C495.154 269.555 498.529 292.793 517.197 302.555C517.197 302.555 539.214 304.217 566.32 294.844L568.242 283.576Z" fill="#FFA5CA"/>
<path d="M530.679 282.21L500.663 284.702L500.792 286.254L530.808 283.763L530.679 282.21Z" fill="#FF69A6"/>
<path d="M538.048 291.227L507.886 294.839L508.072 296.386L538.233 292.774L538.048 291.227Z" fill="#FF69A6"/>
<path d="M496.556 275.709L496.348 274.177C496.53 274.151 514.912 271.632 535.528 273.294L535.398 274.852C514.938 273.19 496.738 275.683 496.556 275.709Z" fill="#FF69A6"/>
<path d="M629.253 357.157C606.457 353.054 565.071 339.839 564.655 339.709L564.188 339.553L564.11 339.06C560.812 316.264 567.433 283.731 567.485 283.42L567.641 282.719L668.821 295.207C668.276 272.177 674.248 249.355 679.389 234.167C685.023 217.524 690.917 206.204 690.994 206.1L692.371 206.827C692.319 206.931 686.451 218.147 680.869 234.712C675.702 249.953 669.704 272.982 670.431 296.09L670.457 296.999L568.887 284.458C567.953 289.288 562.76 317.744 565.59 338.385C570.237 339.865 608.144 351.782 629.538 355.625L629.253 357.157Z" fill="#96CCFF"/>
<path d="M437.802 299.024H427.521V347.628H437.802V299.024Z" fill="#FF69A6"/>
<path d="M401.369 412.096C398.539 412.096 395.553 411.655 392.385 410.798C387.478 409.448 383.22 406.41 379.741 401.736C376.625 397.556 374.029 392.104 371.822 385.016C367.746 371.93 365.617 355.028 363.54 338.671C359.437 306.216 355.205 272.645 336.018 263.739C321.4 256.963 304.706 261.87 293.256 267.193C280.793 272.982 271.68 280.512 271.576 280.59L270.693 279.551C270.797 279.473 280.014 271.84 292.633 265.972C300.058 262.519 307.224 260.312 313.871 259.455C322.257 258.365 329.891 259.403 336.563 262.493C356.451 271.736 360.735 305.671 364.89 338.489C366.941 354.794 369.07 371.645 373.12 384.6C377.638 399.114 383.895 407.033 392.749 409.474C401.498 411.888 409.002 410.798 415 406.228C423.646 399.685 427.826 387.041 429.825 377.616C431.98 367.309 432.084 358.455 432.084 358.351H433.46C433.46 358.429 433.356 367.412 431.175 377.85C429.15 387.534 424.84 400.516 415.83 407.319C411.65 410.512 406.795 412.096 401.369 412.096Z" fill="#212740"/>
<path d="M281.862 290.819C281.862 290.819 286.665 278.954 299.517 277.708L294.065 282.667C294.065 282.667 312.862 279.811 322.988 301.361C322.988 301.361 313.511 305.099 286.457 298.816L281.862 290.819Z" fill="#FFA5CA"/>
<path d="M277.186 290.482L276.096 289.651L280.691 283.498L264.62 279.11C258.518 282.355 250.651 288.535 250.574 288.586L249.717 287.522C249.795 287.47 257.973 281.031 264.205 277.786L264.438 277.656L282.95 282.719L277.186 290.482Z" fill="#212740"/>
<path d="M316.861 292.819C308.864 290.093 303.23 290.69 303.152 290.716L302.997 289.418C303.23 289.392 308.968 288.742 317.277 291.598L316.861 292.819Z" fill="#FF69A6"/>
<path d="M320.756 297.907C313.668 296.194 304.711 294.662 304.633 294.636L304.841 293.364C304.918 293.39 313.902 294.922 321.042 296.661L320.756 297.907Z" fill="#FF69A6"/>
<path d="M304.971 297.559L304.543 298.785L316.873 303.089L317.301 301.864L304.971 297.559Z" fill="#FF69A6"/>
<path d="M692.347 447.952H690.971V329.947H592.647V447.952H591.297V328.571H692.347V447.952Z" fill="#212740"/>
<path d="M635.099 330.44H608.771V422.949C608.771 429.829 614.354 435.411 621.234 435.411H622.662C629.542 435.411 635.125 429.829 635.125 422.949V330.44H635.099Z" fill="white"/>
<path d="M622.637 436.112H621.209C613.965 436.112 608.072 430.218 608.072 422.975V329.765H635.775V422.975C635.775 430.218 629.881 436.112 622.637 436.112ZM609.448 331.115V422.949C609.448 429.44 614.718 434.71 621.209 434.71H622.637C629.128 434.71 634.399 429.44 634.399 422.949V331.115H609.448Z" fill="#212740"/>
<path d="M621.935 431.023C617.105 431.023 613.159 427.077 613.159 422.248V367.542H630.71V422.248C630.71 427.077 626.764 431.023 621.935 431.023Z" fill="#FF69A6"/>
<path d="M638.397 324.183H605.449V334.36H638.397V324.183Z" fill="white"/>
<path d="M674.203 330.44H647.876V422.949C647.876 429.829 653.458 435.411 660.339 435.411H661.767C668.647 435.411 674.229 429.829 674.229 422.949V330.44H674.203Z" fill="white"/>
<path d="M661.737 436.112H660.309C653.065 436.112 647.172 430.218 647.172 422.975V329.765H674.875V422.975C674.875 430.218 668.981 436.112 661.737 436.112ZM648.548 331.115V422.949C648.548 429.44 653.818 434.71 660.309 434.71H661.737C668.228 434.71 673.499 429.44 673.499 422.949V331.115H648.548Z" fill="#212740"/>
<path d="M661.039 431.023C656.21 431.023 652.264 427.077 652.264 422.248V367.542H669.815V422.248C669.815 427.077 665.869 431.023 661.039 431.023Z" fill="#FF69A6"/>
<path d="M677.501 324.183H644.553V334.36H677.501V324.183Z" fill="white"/>
<path d="M639.072 335.061H614.978V333.685H637.722V324.858H605.449V323.482H639.072V335.061Z" fill="#212740"/>
<path d="M678.176 335.061H653.147V333.685H676.8V324.858H644.553V323.482H678.176V335.061Z" fill="#212740"/>
<path d="M666.593 334.36H665.217V418.223H666.593V334.36Z" fill="#212740"/>
<path d="M627.386 334.36H626.01V418.223H627.386V334.36Z" fill="#212740"/>
<path d="M814.326 48.604C806.64 48.604 800.383 42.3468 800.383 34.6615C800.383 26.9762 806.64 20.719 814.326 20.719V22.0951C807.393 22.0951 801.759 27.7292 801.759 34.6615C801.759 41.5938 807.393 47.2279 814.326 47.2279C821.258 47.2279 826.892 41.5938 826.892 34.6615H828.268C828.268 42.3468 822.011 48.604 814.326 48.604Z" fill="#212740"/>
<path d="M766.941 195.559H765.565V212.123H766.941V195.559Z" fill="#212740"/>
<path d="M774.552 203.166H757.987V204.542H774.552V203.166Z" fill="#212740"/>
<path d="M364.222 114.163H362.846V130.727H364.222V114.163Z" fill="#212740"/>
<path d="M371.828 121.77H355.263V123.146H371.828V121.77Z" fill="#212740"/>
<path d="M18.5158 198.415H17.1397V214.979H18.5158V198.415Z" fill="#212740"/>
<path d="M26.0987 206.022H9.53387V207.398H26.0987V206.022Z" fill="#212740"/>
<path d="M17.8144 403.372H1.24957V404.748H17.8144V403.372Z" fill="#212740"/>
<path d="M335.137 77.4758H318.572V78.8519H335.137V77.4758Z" fill="#212740"/>
<path d="M835.463 301.776H818.898V303.152H835.463V301.776Z" fill="#212740"/>
<path d="M478.629 256.275L443.802 291.102L444.903 292.203L479.73 257.376L478.629 256.275Z" fill="#FA448E"/>
<path d="M493.264 251.937L465.781 279.421L466.882 280.522L494.366 253.039L493.264 251.937Z" fill="#FA448E"/>
</svg>
